<svg xmlns="http://www.w3.org/2000/svg" viewBox="0 0 450 90" width="100%" height="100%">
  <defs>
    <style>
      .navy { fill: #0B2038; }
      .navy-stroke { stroke: #0B2038; fill: none; stroke-linecap: round; stroke-linejoin: round; }
      .gold { fill: #C49247; }
      .gold-stroke { stroke: #C49247; fill: none; stroke-linecap: round; stroke-linejoin: round; }
      .white { fill: #FFFFFF; }
      .brand-title {
        font-family: 'Cinzel', 'Playfair Display', 'Times New Roman', Georgia, serif;
        font-size: 27px;
        font-weight: 800;
        letter-spacing: 1.5px;
        fill: #0B2038;
      }
      .brand-subtitle {
        font-family: 'Inter', 'Montserrat', 'Segoe UI', -apple-system, sans-serif;
        font-size: 10px;
        font-weight: 700;
        letter-spacing: 3.5px;
        fill: #C49247;
      }
    </style>
  </defs>
  <g transform="translate(8, 5) scale(0.245)">
    <circle cx="165" cy="165" r="156" class="navy-stroke" stroke-width="7" />
    <circle cx="165" cy="165" r="147" class="gold-stroke" stroke-width="3" />
    <path class="gold" d="M 150 72 C 146 64, 155 58, 152 48 C 158 56, 150 62, 153 72 Z" />
    <path class="gold" d="M 165 67 C 158 54, 170 46, 165 32 C 174 44, 163 52, 169 67 Z" />
    <path class="gold" d="M 180 72 C 184 64, 175 58, 178 48 C 172 56, 180 62, 177 72 Z" />
    <ellipse cx="165" cy="80" rx="8" ry="6" class="navy" />
    <rect x="162" y="84" width="6" height="4" class="navy" rx="1" />
    <path class="navy" d="M 106 138 A 59 59 0 0 1 224 138 Z" />
    <path d="M 119 132 A 46 46 0 0 1 144 98" fill="none" stroke="#FFFFFF" stroke-width="4.5" stroke-linecap="round" />
    <rect x="98" y="138" width="134" height="6" rx="3" class="navy" />
    <path d="M 36 166 Q 165 138 294 166 Q 165 146 36 166 Z" class="navy" />
    <g transform="translate(70, 70)">
      <rect x="14" y="34" width="3.5" height="50" class="navy" rx="1.5" />
      <path class="navy" d="M 9 10 L 9 25 Q 9 34 16 34 Q 23 34 23 25 L 23 10 L 21 10 L 21 23 Q 21 27 16 27 Q 11 27 11 23 L 11 10 Z" />
      <rect x="14" y="10" width="3.5" height="14" class="navy" />
    </g>
    <g transform="translate(225, 70)">
      <ellipse cx="18" cy="23" rx="13" ry="18" class="navy" />
      <rect x="16.5" y="38" width="3.5" height="46" class="navy" rx="1.5" />
    </g>
    <line x1="102" y1="184" x2="102" y2="226" class="gold-stroke" stroke-width="2" />
    <line x1="165" y1="184" x2="165" y2="226" class="gold-stroke" stroke-width="2" />
    <line x1="228" y1="184" x2="228" y2="226" class="gold-stroke" stroke-width="2" />
    <g transform="translate(52, 190)">
      <path class="gold" d="M 4 14 Q 18 14 32 14 L 27 28 Q 18 31 9 28 Z" />
      <rect x="11" y="28" width="14" height="2.5" class="gold" rx="1" />
      <circle cx="18" cy="9" r="2.8" class="gold" />
      <circle cx="12" cy="11.5" r="2.5" class="gold" />
      <circle cx="24" cy="11.5" r="2.5" class="gold" />
      <circle cx="15.5" cy="6" r="2.3" class="gold" />
      <circle cx="21" cy="6.5" r="2.3" class="gold" />
    </g>
    <g transform="translate(116, 186)">
      <path d="M 9 14 L 18 3 L 27 14" class="gold-stroke" stroke-width="2" />
      <rect x="4" y="14" width="28" height="4" class="gold" rx="1.5" />
      <path class="gold" d="M 6 18 L 10 35 L 26 35 L 30 18 Z" />
      <rect x="12" y="22" width="2.2" height="9" class="white" rx="0.8" />
      <rect x="17" y="22" width="2.2" height="9" class="white" rx="0.8" />
      <rect x="22" y="22" width="2.2" height="9" class="white" rx="0.8" />
    </g>
    <g transform="translate(181, 186)">
      <path class="gold-stroke" stroke-width="2.2" d="M 5 2 L 29 2 L 29 35 L 25 32 L 21 35 L 17 32 L 13 35 L 9 32 L 5 35 Z" />
      <line x1="10" y1="8" x2="24" y2="8" class="gold-stroke" stroke-width="2" />
      <text x="17" y="26.5" font-family="'DejaVu Sans', 'Arial', sans-serif" font-size="14" font-weight="bold" class="gold" text-anchor="middle">৳</text>
    </g>
    <g transform="translate(240, 190)">
      <rect x="1" y="2" width="26" height="16" rx="2.5" class="gold" opacity="0.6" />
      <rect x="7" y="9" width="28" height="19" rx="2.5" class="gold" />
      <rect x="7" y="14" width="28" height="3.5" class="white" />
      <text x="17" y="25" font-family="'DejaVu Sans', 'Arial', sans-serif" font-size="7.5" font-weight="bold" class="white" text-anchor="middle">৳</text>
    </g>
    <line x1="22" y1="272" x2="88" y2="272" class="gold-stroke" stroke-width="3" />
    <line x1="242" y1="272" x2="308" y2="272" class="gold-stroke" stroke-width="3" />
    <path class="navy" d="M 92 264 L 165 215 L 238 264 L 238 298 C 238 308 206 316 165 316 C 124 316 92 308 92 298 Z" />
    <path d="M 112 266 L 165 230 L 218 266" class="gold-stroke" stroke-width="6" />
    <path d="M 195 242 L 195 235 L 205 235 L 205 248" class="gold" />
    <rect x="128" y="270" width="7" height="22" class="gold" rx="1" />
    <rect x="195" y="270" width="7" height="22" class="gold" rx="1" />
    <rect x="151" y="264" width="11" height="10" class="white" rx="1" />
    <rect x="167" y="264" width="11" height="10" class="white" rx="1" />
    <rect x="151" y="278" width="11" height="10" class="white" rx="1" />
    <rect x="167" y="278" width="11" height="10" class="white" rx="1" />
  </g>
  <g transform="translate(102, 18)">
    <text x="0" y="32" class="brand-title">
      OFFICERS<tspan fill="#C49247">'</tspan> MESS
    </text>
    <text x="2" y="52" class="brand-subtitle">
      MANAGEMENT PORTAL
    </text>
  </g>
</svg>
